<?xml version="1.0" standalone="no"?>
<!DOCTYPE svg PUBLIC "-//W3C//DTD SVG 20010904//EN"
 "http://www.w3.org/TR/2001/REC-SVG-20010904/DTD/svg10.dtd">
<svg version="1.0" xmlns="http://www.w3.org/2000/svg"
 width="512.000000pt" height="512.000000pt" viewBox="0 0 512.000000 512.000000"
 preserveAspectRatio="xMidYMid meet">
<metadata>
Created by potrace 1.11, written by Peter Selinger 2001-2013
</metadata>
<g transform="translate(0.000000,512.000000) scale(0.100000,-0.100000)"
fill="#000000" stroke="none">
<path d="M1 3873 c1 -687 5 -1198 9 -1137 60 878 569 1660 1360 2086 303 164
707 275 1060 291 36 2 -496 4 -1182 5 l-1248 2 1 -1247z"/>
<path d="M2742 5109 c1261 -85 2282 -1109 2368 -2373 4 -61 8 450 9 1137 l1
1247 -1247 -1 c-722 -1 -1199 -5 -1131 -10z"/>
<path d="M2335 4778 c-966 -97 -1767 -824 -1960 -1778 -146 -726 87 -1496 611
-2016 459 -455 1100 -694 1731 -646 800 62 1492 529 1843 1245 374 761 282
1659 -237 2340 -99 128 -270 300 -400 400 -455 348 -1026 512 -1588 455z m510
-264 c769 -103 1414 -676 1614 -1434 80 -304 88 -587 26 -895 -147 -729 -712
-1323 -1431 -1504 -1162 -294 -2299 495 -2435 1689 -16 143 -6 413 20 555 103
555 424 1024 904 1322 385 238 832 330 1302 267z"/>
<path d="M2439 4203 c-29 -76 -109 -435 -109 -488 0 -9 57 -12 215 -11 187 1
215 3 215 16 0 54 -80 406 -109 483 -10 27 -11 27 -106 27 -95 0 -96 0 -106
-27z"/>
<path d="M2795 4193 c23 -57 105 -444 105 -494 0 -4 44 -12 98 -19 53 -6 130
-18 171 -26 41 -7 76 -12 78 -10 6 6 -112 230 -154 291 -67 100 -140 181 -204
229 -64 48 -107 61 -94 29z"/>
<path d="M2223 4152 c-64 -54 -151 -156 -207 -245 -40 -62 -138 -258 -133
-264 2 -2 57 6 121 17 65 11 131 20 146 20 16 0 31 4 34 9 4 5 16 65 27 133
12 67 35 180 53 251 17 70 28 127 24 127 -4 0 -33 -22 -65 -48z"/>
<path d="M3291 4048 c6 -13 20 -34 29 -48 32 -45 113 -213 155 -320 l42 -105
99 -36 c129 -46 267 -108 345 -154 34 -20 63 -34 65 -33 5 6 -87 151 -145 228
-132 176 -360 367 -559 469 l-43 22 12 -23z"/>
<path d="M1737 4007 c-264 -156 -483 -384 -635 -661 -3 -6 10 0 29 11 70 44
257 132 354 167 55 20 106 40 113 44 7 4 34 61 61 127 54 134 86 201 142 294
22 34 39 65 39 67 0 9 -20 0 -103 -49z"/>
<path d="M2348 3473 c-44 -4 -48 -6 -52 -36 -8 -49 -26 -282 -26 -338 l0 -49
275 0 275 0 0 48 c0 83 -23 350 -31 364 -6 10 -54 13 -201 14 -106 1 -214 -1
-240 -3z"/>
<path d="M2930 3454 c0 -29 32 -392 35 -401 3 -9 31 -13 92 -14 48 0 148 -6
221 -12 119 -11 132 -11 132 3 0 26 -19 128 -47 243 -20 88 -29 110 -47 117
-30 12 -154 37 -271 55 -114 17 -115 17 -115 9z"/>
<path d="M2050 3439 c-159 -29 -252 -54 -259 -68 -12 -22 -59 -234 -67 -301
l-6 -56 133 13 c74 6 166 12 206 12 l71 1 6 73 c3 39 10 127 16 194 5 67 10
126 10 132 0 13 -44 13 -110 0z"/>
<path d="M3594 3287 c3 -12 16 -84 28 -160 20 -120 26 -138 43 -142 11 -2 80
-13 153 -25 73 -12 185 -35 249 -51 64 -15 119 -27 121 -24 20 20 -118 160
-233 237 -91 60 -202 120 -294 157 -73 31 -73 31 -67 8z"/>
<path d="M1429 3257 c-161 -73 -286 -155 -398 -261 -51 -49 -102 -116 -89
-116 2 0 55 13 118 29 63 16 176 39 250 51 74 12 145 24 158 26 17 3 22 11 22
37 1 17 11 87 23 155 13 67 21 122 18 122 -3 0 -49 -20 -102 -43z"/>
<path d="M2289 2913 l-26 -4 -7 -187 c-4 -103 -4 -231 0 -284 l7 -98 283 0
283 0 7 48 c8 52 -2 507 -11 522 -6 10 -478 12 -536 3z"/>
<path d="M1960 2900 c-52 -4 -132 -11 -176 -15 l-82 -7 -6 -45 c-3 -25 -6
-137 -6 -249 l0 -203 33 -5 c51 -9 282 -26 343 -26 l54 0 2 265 c0 146 1 271
2 278 1 15 -39 17 -164 7z"/>
<path d="M2970 2631 l0 -281 68 0 c74 0 317 17 371 26 l33 5 -4 244 c-2 134
-5 246 -8 248 -5 5 -186 22 -357 33 l-103 7 0 -282z"/>
<path d="M1385 2839 c-155 -28 -319 -64 -386 -85 l-76 -24 -7 -52 c-3 -29 -6
-74 -6 -99 0 -45 1 -47 43 -62 93 -36 489 -120 501 -106 2 2 6 102 8 222 4
193 3 217 -11 216 -9 -1 -38 -5 -66 -10z"/>
<path d="M3664 2630 l1 -222 50 6 c116 13 326 60 443 97 l62 21 0 86 c0 48 -4
92 -8 99 -4 7 -27 19 -51 28 -59 20 -278 71 -371 85 -41 6 -87 13 -101 16
l-27 5 2 -221z"/>
<path d="M930 2354 c0 -58 125 -185 288 -291 85 -57 290 -158 299 -149 3 3 -2
47 -11 98 -8 51 -18 125 -22 165 -4 39 -10 76 -13 81 -3 6 -67 20 -140 32
-121 20 -339 68 -383 85 -15 6 -18 2 -18 -21z"/>
<path d="M4075 2348 c-60 -16 -175 -40 -255 -54 -80 -13 -150 -26 -156 -28 -6
-2 -14 -37 -18 -78 -6 -73 -32 -237 -42 -270 -7 -22 -3 -21 135 44 237 110
444 282 466 386 8 38 15 38 -130 0z"/>
<path d="M1706 2203 c14 -102 46 -283 57 -327 11 -42 18 -51 43 -58 38 -11
246 -54 303 -62 l44 -7 -7 98 c-3 54 -9 157 -13 230 l-6 132 -71 5 c-39 3
-128 10 -199 16 -70 5 -134 10 -142 10 -10 0 -12 -9 -9 -37z"/>
<path d="M3275 2230 c-44 -4 -132 -11 -196 -15 l-116 -7 -6 -141 c-4 -78 -10
-182 -14 -231 l-6 -89 67 7 c73 7 248 40 309 58 32 10 39 17 48 52 19 71 49
234 55 306 l7 70 -34 -1 c-19 -1 -70 -5 -114 -9z"/>
<path d="M2265 2105 c13 -219 26 -360 34 -368 8 -8 488 -13 496 -5 6 6 24 249
27 365 l3 103 -283 2 -283 3 6 -100z"/>
<path d="M1070 1872 c0 -15 103 -188 156 -262 125 -175 305 -339 500 -456 59
-35 109 -63 111 -61 2 2 -19 42 -47 88 -55 93 -123 242 -165 364 -16 44 -33
85 -39 91 -6 6 -40 22 -76 34 -114 41 -276 116 -354 164 -81 48 -86 51 -86 38z"/>
<path d="M4020 1854 c-56 -39 -265 -139 -379 -180 -72 -27 -106 -44 -112 -58
-4 -12 -25 -66 -45 -121 -37 -102 -121 -279 -168 -353 -14 -23 -26 -44 -26
-47 0 -11 100 46 203 115 203 135 413 366 521 570 26 50 46 93 45 95 -2 1 -20
-8 -39 -21z"/>
<path d="M1865 1549 c12 -41 103 -228 141 -291 57 -93 147 -201 215 -258 34
-28 63 -49 65 -47 3 2 -9 60 -26 128 -25 105 -40 189 -75 405 l-5 31 -138 22
c-75 12 -148 24 -161 28 -21 5 -23 3 -16 -18z"/>
<path d="M3130 1544 c-69 -12 -144 -23 -167 -23 -23 -1 -44 -5 -48 -11 -3 -5
-15 -65 -26 -132 -22 -141 -50 -273 -77 -370 -18 -65 -18 -68 -2 -68 28 0 134
85 191 153 76 91 154 214 209 330 53 113 65 148 53 146 -4 -1 -64 -12 -133
-25z"/>
<path d="M2320 1496 c0 -55 65 -380 100 -496 23 -77 28 -80 151 -80 58 0 70 3
79 20 28 52 132 541 118 555 -8 8 -448 9 -448 1z"/>
<path d="M1 1248 l-1 -1248 1248 1 c708 1 1197 5 1132 10 -701 47 -1371 399
-1812 949 -328 410 -523 908 -558 1424 -4 61 -8 -450 -9 -1136z"/>
<path d="M5107 2373 c-21 -411 -172 -852 -420 -1228 -430 -652 -1166 -1081
-1947 -1134 -65 -5 424 -9 1133 -10 l1247 -1 0 1245 c0 685 -2 1245 -3 1245
-2 0 -7 -53 -10 -117z"/>
</g>
</svg>
