<?xml version="1.0" encoding="utf-8"?>
<!-- Generator: Adobe Illustrator 17.0.0, SVG Export Plug-In . SVG Version: 6.00 Build 0)  -->
<!DOCTYPE svg PUBLIC "-//W3C//DTD SVG 1.1//EN" "http://www.w3.org/Graphics/SVG/1.1/DTD/svg11.dtd">
<svg version="1.1" id="Layer_1" xmlns="http://www.w3.org/2000/svg" xmlns:xlink="http://www.w3.org/1999/xlink" x="0px" y="0px"
	 width="256px" height="256px" viewBox="0 0 256 256" enable-background="new 0 0 256 256" xml:space="preserve">
<g id="Layer_3" display="none">
	<rect x="0" display="inline" fill="#223362" width="256" height="256"/>
</g>
<g id="Layer_1_1_" display="none">
	
		<image display="inline" overflow="visible" enable-background="new    " width="113" height="113" xlink:href="../png icons/fb_icon.png"  transform="matrix(2.2655 0 0 2.2655 -7.629395e-006 0)">
	</image>
</g>
<g id="Layer_2">
	<path fill="#3B5998" d="M163.156,77l1.656-26.363c0,0-24.634-3.17-36.813,0c0,0-23.046,3.404-23.418,21.326
		c-0.373,17.974-0.207,30.85-0.207,30.85l-17.084-0.014V128h15.274v79.986h33.141V128H161.5l0.719-24.337h-26.513V81.184
		c0,0,2.961-4.184,12.294-5.268C157.333,74.833,163.156,77,163.156,77z"/>
</g>
</svg>
