<?xml version="1.0" encoding="utf-8"?>
<!-- Generator: Adobe Illustrator 17.0.0, SVG Export Plug-In . SVG Version: 6.00 Build 0)  -->
<!DOCTYPE svg PUBLIC "-//W3C//DTD SVG 1.1//EN" "http://www.w3.org/Graphics/SVG/1.1/DTD/svg11.dtd">
<svg version="1.1" xmlns="http://www.w3.org/2000/svg" xmlns:xlink="http://www.w3.org/1999/xlink" x="0px" y="0px" width="256px"
	 height="256px" viewBox="0 0 256 256" enable-background="new 0 0 256 256" xml:space="preserve">
<g id="Layer_1" display="none">
	
		<image display="inline" overflow="visible" width="114" height="117" xlink:href="../png icons/g_icon.png"  transform="matrix(2.188 0 0 2.188 4 -2)">
	</image>
</g>
<g id="Layer_2">
	<g>
		<g>
			<path fill="#D44836" d="M155.776,55.399h-36.632c-16.323,0-27.623,3.579-37.793,11.98C73.354,74.279,68.58,84.308,68.58,94.207
				c0,15.251,11.628,31.459,33.175,31.459c2.072,0,4.366-0.213,6.39-0.401l-0.298,0.725c-0.866,2.075-1.686,4.032-1.686,7.088
				c0,5.949,2.87,9.618,5.644,13.163l0.349,0.449l-0.62,0.043c-8.898,0.609-25.459,1.745-37.556,9.18
				c-14.288,8.495-15.399,20.852-15.399,24.436c0,14.258,13.287,28.649,42.974,28.649c34.519,0,52.581-19.044,52.581-37.855
				c0.003-13.914-8.155-20.783-16.815-28.075l-7.305-5.682c-2.257-1.87-5.068-4.197-5.068-8.509c0-4.239,2.811-7.037,5.292-9.505
				l0.259-0.262c7.889-6.214,16.829-13.259,16.829-28.497c0-15.321-9.574-23.238-14.177-27.044h12.156
				c0.149,0,0.298-0.041,0.422-0.122l10.471-6.583c0.298-0.189,0.438-0.552,0.339-0.892
				C156.443,55.632,156.128,55.399,155.776,55.399z M111.354,200.604c-21.041,0-35.179-9.827-35.179-24.455
				c0-9.551,5.782-16.492,17.17-20.618c9.12-3.07,20.892-3.222,21.009-3.222c1.994,0,2.997,0,4.589,0.2
				c14.723,10.478,21.801,15.979,21.801,26.457C140.744,192.314,129.481,200.604,111.354,200.604z M111.156,120.051
				c-17.659,0-24.988-23.213-24.988-35.642c0-6.32,1.437-11.171,4.394-14.834c3.209-4.015,8.704-6.609,13.999-6.609
				c16.214,0,25.18,21.793,25.18,36.855c0,2.376,0,9.605-4.994,14.626C121.389,117.8,115.928,120.051,111.156,120.051z"/>
			<path fill="#D44836" d="M207.118,127.138h-19.303v-19.234c0-0.438-0.357-0.793-0.793-0.793h-8.303
				c-0.438,0-0.793,0.355-0.793,0.793v19.234H158.72c-0.438,0-0.793,0.355-0.793,0.793v8.414c0,0.436,0.355,0.793,0.793,0.793
				h19.206v19.358c0,0.436,0.355,0.793,0.793,0.793h8.303c0.436,0,0.793-0.357,0.793-0.793v-19.361h19.303
				c0.438,0,0.793-0.354,0.793-0.793v-8.411C207.911,127.491,207.557,127.138,207.118,127.138z"/>
		</g>
	</g>
</g>
</svg>
