<?xml version="1.0" encoding="utf-8"?>
<!-- Generator: Adobe Illustrator 17.0.0, SVG Export Plug-In . SVG Version: 6.00 Build 0)  -->
<!DOCTYPE svg PUBLIC "-//W3C//DTD SVG 1.1//EN" "http://www.w3.org/Graphics/SVG/1.1/DTD/svg11.dtd">
<svg version="1.1" id="Layer_1" xmlns="http://www.w3.org/2000/svg" xmlns:xlink="http://www.w3.org/1999/xlink" x="0px" y="0px"
	 width="256px" height="256px" viewBox="0 0 256 256" enable-background="new 0 0 256 256" xml:space="preserve">
<g id="Layer_3" display="none">
	<rect display="inline" fill="#010202" width="256" height="256"/>
</g>
<g id="Layer_1_1_" display="none">
	
		<image display="inline" overflow="visible" enable-background="new    " width="113" height="113" xlink:href="../png icons/t_icon.png"  transform="matrix(2.2655 0 0 2.2655 0 0)">
	</image>
</g>
<g id="Layer_2">
	<path fill="#5EA9DE" d="M126.167,106c0,0-43-1.333-68.5-35.333c-13.292,27.833,10,43.5,10,43.5s-8.417,1.208-15.417-2.667
		c-0.75,3.375,2.125,25.125,25.25,32.875c-0.739,2.925-11.875,1-11.875,1s1.5,15,27.75,23.625
		c-11.25,13.625-41.227,13.875-41.227,13.875S52.875,197,98.5,199.625s91.167-47.958,93-80.792c0-22.208,0-23.167,0-23.167
		L207,85.063h-15.563l12.656-12.656c0,0-4.969-1.656-15.344,1.844c-6.197,1.562-7.875,0.125-7.875,0.125s-1.625-10.438-20.625-9.563
		c-19,0.875-25.188,9.938-25.188,9.938S125.833,87.188,126.167,106z"/>
</g>
</svg>
