<?xml version="1.0" encoding="utf-8"?>
<!-- Generator: Adobe Illustrator 17.0.0, SVG Export Plug-In . SVG Version: 6.00 Build 0)  -->
<!DOCTYPE svg PUBLIC "-//W3C//DTD SVG 1.1//EN" "http://www.w3.org/Graphics/SVG/1.1/DTD/svg11.dtd">
<svg version="1.1" id="Layer_1" xmlns="http://www.w3.org/2000/svg" xmlns:xlink="http://www.w3.org/1999/xlink" x="0px" y="0px"
	 width="64px" height="64px" viewBox="0 0 64 64" enable-background="new 0 0 64 64" xml:space="preserve">
<g>
	<g>
		<path fill="#FFFFFF" d="M2.974,25.937c7.798,7.798,15.595,15.595,23.393,23.393c6.845,6.846,17.452-3.761,10.607-10.607
			c-7.798-7.798-15.595-15.595-23.393-23.393C6.735,8.485-3.872,19.091,2.974,25.937L2.974,25.937z"/>
	</g>
</g>
<g>
	<g>
		<path fill="#FFFFFF" d="M36.973,49.33c8.018-8.018,16.035-16.035,24.053-24.053c6.846-6.846-3.761-17.452-10.607-10.607
			c-8.018,8.018-16.035,16.035-24.053,24.053C19.521,45.569,30.128,56.175,36.973,49.33L36.973,49.33z"/>
	</g>
</g>
</svg>
