<?xml version="1.0" encoding="utf-8"?>
<!-- Generator: Adobe Illustrator 17.0.0, SVG Export Plug-In . SVG Version: 6.00 Build 0)  -->
<!DOCTYPE svg PUBLIC "-//W3C//DTD SVG 1.1//EN" "http://www.w3.org/Graphics/SVG/1.1/DTD/svg11.dtd">
<svg version="1.1" id="Layer_1" xmlns="http://www.w3.org/2000/svg" xmlns:xlink="http://www.w3.org/1999/xlink" x="0px" y="0px"
	 width="128px" height="128px" viewBox="0 0 128 128" enable-background="new 0 0 128 128" xml:space="preserve">
<g id="Layer_2">
	<polygon fill="#FFFFFF" points="44.375,114.5 83.594,114.5 82.656,123.813 45.25,123.813 	"/>
	<polygon fill="none" stroke="#FFFFFF" stroke-width="3" stroke-miterlimit="10" points="38.094,67.813 89.844,67.813 
		85.469,111.406 42.594,111.406 	"/>
	<circle fill="#FFFFFF" cx="63.969" cy="89.609" r="14.25"/>
	<path fill="#FFFFFF" d="M32.828,63v-6.313c0,0,0.063-1.359,1.359-1.359s5.766,0,5.766,0l0.547-4.969c0,0-0.094-1.391,1.766-1.391
		s43.719,0,43.719,0s1.063-0.328,1.469,1.344s0.547,5,0.547,5h5.797c0,0,1.281-0.078,1.391,1.453s0,6.328,0,6.328L32.828,63z"/>
	<path fill="#FFFFFF" d="M48.688,4c0,0-1.688,2.875-1.906,8.625S50,27.063,49.969,30.906c0.438,4.313-1.156,7.438-1.156,7.438
		l5.5,2.719c0,0,2.094-2.969,1.969-10S53.375,16.5,53.375,16.5s-1.156-6.094,0.938-9.719C51.625,5.219,48.688,4,48.688,4z"/>
	<path fill="#FFFFFF" d="M61.159,4c0,0-1.688,2.875-1.906,8.625s3.219,14.438,3.188,18.281c0.438,4.313-1.156,7.438-1.156,7.438
		l5.5,2.719c0,0,2.094-2.969,1.969-10S65.846,16.5,65.846,16.5s-1.156-6.094,0.938-9.719C64.096,5.219,61.159,4,61.159,4z"/>
	<path fill="#FFFFFF" d="M73.495,4c0,0-1.688,2.875-1.906,8.625s3.219,14.438,3.188,18.281c0.438,4.313-1.156,7.438-1.156,7.438
		l5.5,2.719c0,0,2.094-2.969,1.969-10S78.182,16.5,78.182,16.5s-1.156-6.094,0.938-9.719C76.432,5.219,73.495,4,73.495,4z"/>
</g>
</svg>
