<?xml version="1.0" encoding="utf-8"?>
<!-- Generator: Adobe Illustrator 17.0.0, SVG Export Plug-In . SVG Version: 6.00 Build 0)  -->
<!DOCTYPE svg PUBLIC "-//W3C//DTD SVG 1.1//EN" "http://www.w3.org/Graphics/SVG/1.1/DTD/svg11.dtd">
<svg version="1.1" xmlns="http://www.w3.org/2000/svg" xmlns:xlink="http://www.w3.org/1999/xlink" x="0px" y="0px" width="128px"
	 height="128px" viewBox="0 0 128 128" enable-background="new 0 0 128 128" xml:space="preserve">
<g id="Layer_1" display="none">
	<rect display="inline" fill="#512626" width="128" height="128"/>
</g>
<g id="Layer_2">
	<g>
		<g>
			<path fill="#FFFFFF" d="M15.994,16.746c0,31.503,0,63.006,0,94.509c0,7.738,12,7.738,12,0c0-31.503,0-63.006,0-94.509
				C27.994,9.007,15.994,9.007,15.994,16.746L15.994,16.746z"/>
		</g>
	</g>
	<g>
		<polygon fill="#FFFFFF" points="36.301,31.796 36.301,14.332 73.873,23.064 111.445,31.796 73.873,40.529 36.301,49.261 		"/>
		<g>
			<path fill="#FFFFFF" d="M37.801,31.796c0-5.822,0-11.643,0-17.465c-0.633,0.482-1.266,0.964-1.899,1.446
				C60.95,21.6,85.998,27.421,111.046,33.243c0-0.964,0-1.929,0-2.893C85.998,36.172,60.95,41.993,35.902,47.815
				c0.633,0.482,1.266,0.964,1.899,1.446C37.801,43.44,37.801,37.618,37.801,31.796c0-1.935-3-1.935-3,0c0,5.822,0,11.643,0,17.465
				c0,1.005,0.954,1.666,1.899,1.446c25.048-5.822,50.096-11.643,75.144-17.465c1.435-0.334,1.435-2.559,0-2.893
				c-25.048-5.822-50.096-11.643-75.144-17.465c-0.944-0.219-1.899,0.442-1.899,1.446c0,5.822,0,11.643,0,17.465
				C34.801,33.731,37.801,33.731,37.801,31.796z"/>
		</g>
	</g>
	<g>
		<polygon fill="#FFFFFF" points="36.301,53.266 36.301,33.724 73.873,43.495 111.445,53.266 73.873,63.037 36.301,72.808 		"/>
		<g>
			<path fill="#FFFFFF" d="M37.801,53.266c0-6.514,0-13.028,0-19.542c-0.633,0.482-1.266,0.964-1.899,1.446
				c25.048,6.514,50.096,13.028,75.144,19.542c0-0.964,0-1.929,0-2.893C85.998,58.333,60.95,64.847,35.902,71.362
				c0.633,0.482,1.266,0.964,1.899,1.446C37.801,66.294,37.801,59.78,37.801,53.266c0-1.935-3-1.935-3,0c0,6.514,0,13.028,0,19.542
				c0,0.986,0.956,1.691,1.899,1.446c25.048-6.514,50.096-13.028,75.144-19.542c1.434-0.373,1.434-2.52,0-2.893
				c-25.048-6.514-50.096-13.028-75.144-19.542c-0.942-0.245-1.899,0.461-1.899,1.446c0,6.514,0,13.028,0,19.542
				C34.801,55.2,37.801,55.2,37.801,53.266z"/>
		</g>
	</g>
</g>
</svg>
