<?xml version="1.0" encoding="utf-8"?>
<!-- Generator: Adobe Illustrator 17.0.0, SVG Export Plug-In . SVG Version: 6.00 Build 0)  -->
<!DOCTYPE svg PUBLIC "-//W3C//DTD SVG 1.1//EN" "http://www.w3.org/Graphics/SVG/1.1/DTD/svg11.dtd">
<svg version="1.1" id="Layer_1" xmlns="http://www.w3.org/2000/svg" xmlns:xlink="http://www.w3.org/1999/xlink" x="0px" y="0px"
	 width="128px" height="128px" viewBox="0 0 128 128" enable-background="new 0 0 128 128" xml:space="preserve">
<circle fill="none" stroke="#FFFFFF" stroke-width="7" stroke-miterlimit="10" cx="64.578" cy="63.422" r="58.526"/>
<circle fill="#FFFFFF" cx="41.628" cy="41.528" r="7.941"/>
<circle fill="#FFFFFF" cx="84.981" cy="41.528" r="7.941"/>
<g>
	<g>
		<path fill="#FFFFFF" d="M28.665,82.965c5.474,7.353,13.202,13.618,21.64,17.176c18.912,7.974,36.315-1.916,48.561-16.569
			c2.463-2.947-1.759-7.215-4.243-4.243c-10.902,13.045-25.969,22.553-42.882,14.934c-4.935-2.223-9.318-5.532-13.218-9.249
			c-1.238-1.18-2.408-2.43-3.535-3.715c-0.356-0.407-1.735-2.157-1.143-1.362C31.564,76.871,26.352,79.857,28.665,82.965
			L28.665,82.965z"/>
	</g>
</g>
</svg>
