<?xml version="1.0" encoding="UTF-8" standalone="no"?>
<!-- Created with Inkscape (http://www.inkscape.org/) -->

<svg
   xmlns:dc="http://purl.org/dc/elements/1.1/"
   xmlns:cc="http://creativecommons.org/ns#"
   xmlns:rdf="http://www.w3.org/1999/02/22-rdf-syntax-ns#"
   xmlns:svg="http://www.w3.org/2000/svg"
   xmlns="http://www.w3.org/2000/svg"
   xmlns:sodipodi="http://sodipodi.sourceforge.net/DTD/sodipodi-0.dtd"
   xmlns:inkscape="http://www.inkscape.org/namespaces/inkscape"
   width="50.463875mm"
   height="10.653889mm"
   viewBox="0 0 178.80901 37.749999"
   id="svg2"
   version="1.1"
   inkscape:version="0.91 r"
   sodipodi:docname="logo_text.svg">
  <defs
     id="defs4" />
  <sodipodi:namedview
     id="base"
     pagecolor="#c5c5c5"
     bordercolor="#666666"
     borderopacity="1.0"
     inkscape:pageopacity="0"
     inkscape:pageshadow="2"
     inkscape:zoom="5.6568543"
     inkscape:cx="68.678953"
     inkscape:cy="14.877474"
     inkscape:document-units="px"
     inkscape:current-layer="layer1"
     showgrid="false"
     showguides="true"
     inkscape:guide-bbox="true"
     fit-margin-top="0"
     fit-margin-left="0"
     fit-margin-right="0"
     fit-margin-bottom="0"
     inkscape:window-width="1920"
     inkscape:window-height="1022"
     inkscape:window-x="0"
     inkscape:window-y="0"
     inkscape:window-maximized="1">
    <sodipodi:guide
       position="159.79339,37.898444"
       orientation="0,1"
       id="guide4142" />
    <sodipodi:guide
       position="160.08245,0.093755768"
       orientation="0,1"
       id="guide4144" />
    <sodipodi:guide
       position="21.250001,28.187499"
       orientation="0,1"
       id="guide4143" />
    <sodipodi:guide
       position="21.625001,33.124999"
       orientation="0,1"
       id="guide4145" />
  </sodipodi:namedview>
  <metadata
     id="metadata7">
    <rdf:RDF>
      <cc:Work
         rdf:about="">
        <dc:format>image/svg+xml</dc:format>
        <dc:type
           rdf:resource="http://purl.org/dc/dcmitype/StillImage" />
        <dc:title />
      </cc:Work>
    </rdf:RDF>
  </metadata>
  <g
     inkscape:label="Layer 1"
     inkscape:groupmode="layer"
     id="layer1"
     transform="translate(-184.56599,-412.36221)">
    <g
       style="font-style:normal;font-weight:normal;font-size:50px;line-height:125%;font-family:sans-serif;letter-spacing:0px;word-spacing:0px;fill:#000000;fill-opacity:1;stroke:none;stroke-width:1px;stroke-linecap:butt;stroke-linejoin:miter;stroke-opacity:1"
       id="text4138">
      <path
         d="m 184.56599,412.8689 4.93164,0 0,36.45019 -4.93164,0 0,-36.45019 z"
         style="font-style:normal;font-variant:normal;font-weight:normal;font-stretch:normal;font-family:'Noto Serif Thai';-inkscape-font-specification:'Noto Serif Thai';fill:#ffffff"
         id="path8171" />
      <path
         d="m 221.84627,432.81519 0,16.5039 -4.49219,0 0,-16.35742 q 0,-3.88184 -1.51367,-5.81055 -1.51367,-1.92871 -4.54102,-1.92871 -3.63769,0 -5.7373,2.31934 -2.09961,2.31933 -2.09961,6.32324 l 0,15.4541 -4.5166,0 0,-27.34375 4.5166,0 0,4.24805 q 1.61133,-2.46582 3.78418,-3.68652 2.19726,-1.22071 5.05371,-1.22071 4.71191,0 7.12891,2.92969 2.41699,2.90527 2.41699,8.56934 z"
         style="font-style:normal;font-variant:normal;font-weight:normal;font-stretch:normal;font-family:'Noto Serif Thai';-inkscape-font-specification:'Noto Serif Thai';fill:#ffffff"
         id="path8173" />
      <path
         d="m 235.98201,416.92163 0,28.34473 5.95703,0 q 7.54395,0 11.03516,-3.41797 3.51562,-3.41797 3.51562,-10.79102 0,-7.32422 -3.51562,-10.71777 -3.49121,-3.41797 -11.03516,-3.41797 l -5.95703,0 z m -4.93164,-4.05273 10.13184,0 q 10.5957,0 15.55175,4.41894 4.95606,4.39453 4.95606,13.76953 0,9.42383 -4.98047,13.84278 -4.98047,4.41894 -15.52734,4.41894 l -10.13184,0 0,-36.45019 z"
         style="font-style:normal;font-variant:normal;font-weight:normal;font-stretch:normal;font-family:'Noto Serif Thai';-inkscape-font-specification:'Noto Serif Thai';fill:#ffffff"
         id="path8175" />
      <path
         d="m 292.72029,434.52417 0,2.19727 -20.6543,0 q 0.29297,4.63867 2.78321,7.08007 2.51465,2.417 6.98242,2.417 2.58789,0 5.00488,-0.63477 2.44141,-0.63477 4.83399,-1.9043 l 0,4.24805 q -2.417,1.02539 -4.95606,1.5625 -2.53906,0.53711 -5.15137,0.53711 -6.54296,0 -10.37597,-3.80859 -3.8086,-3.8086 -3.8086,-10.30274 0,-6.71387 3.61329,-10.64453 3.63769,-3.95508 9.79003,-3.95508 5.51758,0 8.71582,3.56446 3.22266,3.54003 3.22266,9.64355 z m -4.49219,-1.31836 q -0.0488,-3.68652 -2.07519,-5.88379 -2.00195,-2.19726 -5.32227,-2.19726 -3.75976,0 -6.03027,2.12402 -2.24609,2.12402 -2.58789,5.98144 l 16.01562,-0.0244 z"
         style="font-style:normal;font-variant:normal;font-weight:normal;font-stretch:normal;font-family:'Noto Serif Thai';-inkscape-font-specification:'Noto Serif Thai';fill:#ffffff"
         id="path8177" />
      <path
         d="m 300.28865,412.8689 4.93164,0 0,36.45019 -4.93164,0 0,-36.45019 z"
         style="font-style:normal;font-variant:normal;font-weight:normal;font-stretch:normal;font-family:'Noto Serif Thai';-inkscape-font-specification:'Noto Serif Thai';fill:#ffffff"
         id="path8179" />
    </g>
    <circle
       style="fill:#ffffff;fill-opacity:1;fill-rule:evenodd;stroke:none;stroke-width:1;stroke-linecap:butt;stroke-linejoin:miter;stroke-miterlimit:4;stroke-dasharray:none;stroke-dashoffset:0;stroke-opacity:1"
       id="path4146"
       cx="344.5"
       cy="431.23721"
       r="18.875" />
    <rect
       style="fill:#ffffff;fill-opacity:1;fill-rule:evenodd;stroke:none;stroke-width:20;stroke-linecap:square;stroke-linejoin:round;stroke-miterlimit:4;stroke-dasharray:none;stroke-dashoffset:0;stroke-opacity:1"
       id="rect4162"
       width="4.5"
       height="27.343744"
       x="314.75348"
       y="421.92471" />
    <rect
       style="fill:#ffffff;fill-opacity:1;fill-rule:evenodd;stroke:none;stroke-width:20;stroke-linecap:square;stroke-linejoin:round;stroke-miterlimit:4;stroke-dasharray:none;stroke-dashoffset:0;stroke-opacity:1"
       id="rect4162-2"
       width="4.5"
       height="4.3437443"
       x="314.75348"
       y="412.69034" />
  </g>
</svg>
