<?xml version="1.0" encoding="utf-8"?>
<!-- Generator: Adobe Illustrator 17.0.0, SVG Export Plug-In . SVG Version: 6.00 Build 0)  -->
<!DOCTYPE svg PUBLIC "-//W3C//DTD SVG 1.1//EN" "http://www.w3.org/Graphics/SVG/1.1/DTD/svg11.dtd">
<svg version="1.1" id="Layer_1" xmlns="http://www.w3.org/2000/svg" xmlns:xlink="http://www.w3.org/1999/xlink" x="0px" y="0px"
	 width="128px" height="128px" viewBox="0 0 128 128" enable-background="new 0 0 128 128" xml:space="preserve">
<g>
	<path fill="#FFFFFF" d="M59.164,74.762v29.582c0,4.109-1.438,7.601-4.314,10.477s-6.368,4.314-10.477,4.314H14.791
		c-4.109,0-7.601-1.438-10.477-4.314S0,108.452,0,104.344V50.11c0-5.341,1.04-10.439,3.12-15.292s4.892-9.052,8.436-12.596
		s7.742-6.356,12.596-8.436s9.951-3.12,15.292-3.12h4.93c1.335,0,2.491,0.488,3.467,1.464c0.976,0.976,1.464,2.131,1.464,3.467
		v9.861c0,1.335-0.488,2.491-1.464,3.467c-0.976,0.976-2.131,1.464-3.467,1.464h-4.93c-5.444,0-10.092,1.926-13.944,5.778
		s-5.778,8.5-5.778,13.944v2.465c0,2.054,0.719,3.801,2.157,5.239c1.438,1.438,3.184,2.157,5.239,2.157h17.256
		c4.109,0,7.601,1.438,10.477,4.314S59.164,70.653,59.164,74.762z M128.19,74.762v29.582c0,4.109-1.438,7.601-4.314,10.477
		s-6.368,4.314-10.477,4.314H83.816c-4.109,0-7.601-1.438-10.477-4.314c-2.876-2.876-4.314-6.368-4.314-10.477V50.11
		c0-5.341,1.04-10.439,3.12-15.292c2.08-4.853,4.892-9.052,8.436-12.596s7.742-6.356,12.596-8.436
		c4.853-2.08,9.951-3.12,15.292-3.12h4.93c1.335,0,2.491,0.488,3.467,1.464c0.976,0.976,1.464,2.131,1.464,3.467v9.861
		c0,1.335-0.488,2.491-1.464,3.467c-0.976,0.976-2.131,1.464-3.467,1.464h-4.93c-5.444,0-10.092,1.926-13.944,5.778
		c-3.852,3.852-5.778,8.5-5.778,13.944v2.465c0,2.054,0.719,3.801,2.157,5.239c1.438,1.438,3.184,2.157,5.239,2.157h17.256
		c4.109,0,7.601,1.438,10.477,4.314S128.19,70.653,128.19,74.762L128.19,74.762z"/>
</g>
</svg>
