<?xml version="1.0" encoding="utf-8"?>
<!-- Generator: Adobe Illustrator 17.0.0, SVG Export Plug-In . SVG Version: 6.00 Build 0)  -->
<!DOCTYPE svg PUBLIC "-//W3C//DTD SVG 1.1//EN" "http://www.w3.org/Graphics/SVG/1.1/DTD/svg11.dtd">
<svg version="1.1" id="Layer_1" xmlns="http://www.w3.org/2000/svg" xmlns:xlink="http://www.w3.org/1999/xlink" x="0px" y="0px"
	 width="128px" height="128px" viewBox="0 0 128 128" enable-background="new 0 0 128 128" xml:space="preserve">
<g id="Layer_2">
	<circle fill="none" stroke="#FFFFFF" stroke-width="10" stroke-miterlimit="10" cx="63.871" cy="63.871" r="57.792"/>
	<circle fill="#FFFFFF" cx="63.871" cy="63.871" r="10.838"/>
	<g>
		<g>
			<path fill="#FFFFFF" d="M68.371,63.871c0-12.846,0-25.692,0-38.538c0-5.804-9-5.804-9,0c0,12.846,0,25.692,0,38.538
				C59.371,69.675,68.371,69.675,68.371,63.871L68.371,63.871z"/>
		</g>
	</g>
	<g>
		<g>
			<path fill="#FFFFFF" d="M92.288,88.045c-8.765-8.765-17.53-17.53-26.296-26.296c-2.738-2.738-6.981,1.504-4.243,4.243
				c8.765,8.765,17.53,17.53,26.296,26.296C90.784,95.026,95.026,90.784,92.288,88.045L92.288,88.045z"/>
		</g>
	</g>
</g>
</svg>
