<?xml version="1.0" encoding="utf-8"?>
<!-- Generator: Adobe Illustrator 17.0.0, SVG Export Plug-In . SVG Version: 6.00 Build 0)  -->
<!DOCTYPE svg PUBLIC "-//W3C//DTD SVG 1.1//EN" "http://www.w3.org/Graphics/SVG/1.1/DTD/svg11.dtd">
<svg version="1.1" id="Layer_1" xmlns="http://www.w3.org/2000/svg" xmlns:xlink="http://www.w3.org/1999/xlink" x="0px" y="0px"
	 width="128px" height="128px" viewBox="0 0 128 128" enable-background="new 0 0 128 128" xml:space="preserve">
<g id="Layer_2">
	<path fill="#FFFFFF" d="M22.958,41.449H36.5c0,0,1.966,0.568,2.49,1.878s7.732,16.993,12.057,19.746
		c3.495,2.359,3.364-2.534,3.364-2.534l0.001-13.368c0,0,0.567-3.364-4.806-4.237c1.005-2.621,4.823-3.102,4.823-3.102h12.563
		c0,0,4.194-0.917,4.237,3.801c0.044,4.718,0,16.688,0,16.688s0.131,2.272,1.966,3.014c1.835,0.743,7.907-6.596,13.149-20.051
		c1.223-2.228,2.141-1.747,2.141-1.747l15.333,0.044c0,0,4.106-0.437,2.621,3.932S94.252,63.716,94.252,63.716
		s-2.883,3.114-0.699,5.823c2.184,2.708,12.232,10.397,13.018,14.678c0.786,4.281-3.145,4.019-3.145,4.019l-14.285,0.003
		c0,0-3.801-0.309-6.815-4.94s-5.242-5.373-7.339-6.16c-2.097-0.786-4.412,4.106-4.019,8.824c-0.406,2.243-3.014,2.275-3.014,2.275
		h-8.213c0,0-9.48-0.396-19.964-12.06S22.696,47.653,21.56,45.381S22.609,41.449,22.958,41.449z"/>
</g>
</svg>
